# xmcd
# 
# Track frame offsets:
#     150
#     25092
#     45676
#     60389
#     84850
#     109697
#     131786
#     150254
#     170550
#     183579
#     202671
#     218783
#     237097
#     261025
# 
# Disc length: 4054
# 
# Revision: 1
# Processed by: cddbd v1.5.2PL0 Copyright (c) Steve Scherf et al.
# Submitted via: BonkEnc v1.0
# 
DISCID=ac0fd40e
DTITLE=寺井尚子 - 小さな花　Petite Fleur～Amapola
DYEAR=2008
DGENRE=Jazz
TTITLE0=アマポーラ AMAPOLA
TTITLE1=マイ・フェイヴァリット・シングス MY FAVORITE THINGS
TTITLE2=ザ・マン・フー・インヴェンテッド・ジャズ THA MAN WHO INVENTED JAZZ
TTITLE3=スプリーン SPLEEN
TTITLE4=トリステーザ TRISTEZA
TTITLE5=小さな花 PETITE FLEUR
TTITLE6=グッド・ラック GOOD LUCK
TTITLE7=たそがれ TWILIGHT
TTITLE8=ペント・アップ・ハウス PENT UP HOUSE
TTITLE9=モンパルナスの思い出 I REMEMBER MONTPARNASSE
TTITLE10=地球 TERRA
TTITLE11=パーディド PERDIDO
TTITLE12=アマポーラ AMAPOLA(short version)
TTITLE13=アマポーラ（ライヴ映像）
EXTD=YEAR: 2008
EXTT0=
EXTT1=
EXTT2=
EXTT3=
EXTT4=
EXTT5=
EXTT6=
EXTT7=
EXTT8=
EXTT9=
EXTT10=
EXTT11=
EXTT12=
EXTT13=
PLAYORDER=
